<?xml version="1.0" encoding="UTF-8" standalone="no"?>
<!-- Created with Inkscape (http://www.inkscape.org/) -->

<svg
   width="200.26459mm"
   height="200.26459mm"
   viewBox="0 0 200.26459 200.26459"
   version="1.1"
   id="svg5"
   inkscape:export-filename="/home/claudiu/Downloads/duckling.png"
   inkscape:export-xdpi="96"
   inkscape:export-ydpi="96"
   inkscape:version="1.1.2 (0a00cf5339, 2022-02-04)"
   sodipodi:docname="logo.svg"
   xmlns:inkscape="http://www.inkscape.org/namespaces/inkscape"
   xmlns:sodipodi="http://sodipodi.sourceforge.net/DTD/sodipodi-0.dtd"
   xmlns="http://www.w3.org/2000/svg"
   xmlns:svg="http://www.w3.org/2000/svg">
  <sodipodi:namedview
     id="namedview7"
     pagecolor="#505050"
     bordercolor="#eeeeee"
     borderopacity="1"
     inkscape:pageshadow="0"
     inkscape:pageopacity="0"
     inkscape:pagecheckerboard="0"
     inkscape:document-units="mm"
     showgrid="false"
     inkscape:zoom="0.77771465"
     inkscape:cx="165.2277"
     inkscape:cy="522.04237"
     inkscape:window-width="3072"
     inkscape:window-height="1659"
     inkscape:window-x="0"
     inkscape:window-y="0"
     inkscape:window-maximized="1"
     inkscape:current-layer="g14908" />
  <defs
     id="defs2">
    <style
       id="style14893">.fa-secondary{opacity:.4}</style>
  </defs>
  <g
     inkscape:label="Layer 1"
     inkscape:groupmode="layer"
     id="layer1"
     transform="translate(-51.936529,-5.7867644)">
    <rect
       style="fill:#3178c6;fill-opacity:1;stroke:#2a54a4;stroke-width:0.264583"
       id="rect868"
       width="200"
       height="200"
       x="52.068821"
       y="5.9190559"
       rx="20"
       inkscape:export-filename="/home/claudiu/Downloads/duckling2.png"
       inkscape:export-xdpi="96"
       inkscape:export-ydpi="96" />
    <g
       id="g14908"
       transform="matrix(0.26458333,0,0,0.26458333,87.661935,68.428878)">
      <path
         class="fa-primary"
         d="m 465.3,277.4 c -10.86,-7.763 -17.27,-20.29 -17.28,-33.64 -0.0781,-6.923 1.647,-13.71 5.002,-19.77 37.28,-13.18 58.1,-54.2 58.1,-95.1 C 512,74.98 469,32 416,32 c -53,0 -95.99,42.98 -95.99,96 0,22.17 7.832,43.65 22.11,60.61 6.313,7.406 9.81,16.78 9.892,26.52 0,22.57 -18.3,40.87 -40.88,40.88 h -21.72 c -31.51,0 -80.15,-13.21 -101.6,-36.24 C 177.8,208.1 160,216.2 160,230.6 160.0078,315.31 228.67,384 313.4,384 h -32 C 205.41,384 142.7,328.56 130.6,256.9 H 80.18 C 71.02,256 63.42,263.7 64.05,272.8 72.67,388.7 169.4,480 287.4,480 h 107.2 c 55.51,0 110.8,-44.54 116.7,-99.73 4.5,-40.07 -13.2,-79.47 -46,-102.87 z M 416,144 c -8.837,0 -15.1,-7.164 -15.1,-15.1 0,-8.838 7.163,-16 16,-16 8.837,0 15.1,7.163 15.1,16 0,7.9 -7.2,15.1 -16,15.1 z"
         id="path14897"
         style="fill:#ffffff;fill-opacity:1"
         inkscape:export-filename="/home/claudiu/Downloads/duckling2.png"
         inkscape:export-xdpi="96"
         inkscape:export-ydpi="96" />
      <path
         class="fa-secondary"
         d="m 576,128 c 0,53.02 -42.98,95.1 -95.99,95.1 H 453 c 37.28,-13.18 58.1,-54.2 58.1,-95.1 z"
         id="path14899"
         style="opacity:1;fill:#f1dd35;fill-opacity:0.99"
         inkscape:export-filename="/home/claudiu/Downloads/duckling2.png"
         inkscape:export-xdpi="96"
         inkscape:export-ydpi="96" />
    </g>
  </g>
</svg>
